<svg width="174" height="63" viewBox="0 0 174 63" fill="none" xmlns="http://www.w3.org/2000/svg">
<g clip-path="url(#clip0_593_134)">
<path d="M72.1516 38.5472C71.8584 39.3395 71.4307 40.0785 70.8708 40.7125C69.5864 42.1678 67.5937 43.0116 65.6675 42.7724C64.6597 42.6474 63.694 42.2397 62.8736 41.6406C61.0699 40.3233 60.0198 38.077 60.0465 35.8435C60.0725 33.6861 61.1465 30.9454 63.1017 29.8557C65.2169 28.6765 67.6843 28.4963 69.7421 29.962C71.4448 31.175 72.4579 33.2292 72.6069 35.3148C72.685 36.407 72.5308 37.5217 72.1516 38.5472ZM76.1393 31.5402C74.5731 27.7546 71.0578 24.8237 66.7836 24.5826C62.2939 24.3295 58.2801 27.4847 56.6014 31.5198C56.0331 32.885 55.7446 34.3387 55.7446 35.8399V55.1189C58.176 55.1189 60.1465 53.1933 60.1465 50.8182C60.1465 50.7707 60.1407 50.7249 60.1391 50.6775H60.1485C60.1485 50.6775 60.1485 44.7023 60.149 44.7023C60.8444 45.2377 61.435 45.8726 62.2293 46.2762C63.0497 46.6935 63.9616 46.9216 64.8732 47.0205C71.1526 47.7055 76.7201 42.6078 77.006 36.3993C77.0831 34.7211 76.7685 33.0616 76.1393 31.5402Z" fill="#71C7B1"/>
<path d="M134.898 43.9481L128.081 35.7764L134.484 30.199C134.967 29.8158 135.212 29.309 135.212 28.6922C135.212 28.1693 135.018 27.712 134.638 27.3323C134.246 26.8707 133.732 26.637 133.108 26.637C132.569 26.637 132.099 26.8276 131.71 27.2041L123.527 34.3441V20.7257C123.527 20.1012 123.323 19.585 122.921 19.1918C122.518 18.7985 121.99 18.5996 121.351 18.5996C120.711 18.5996 120.184 18.7985 119.781 19.1918C119.379 19.585 119.174 20.1012 119.174 20.7257V38.5469C119.169 38.5469 119.162 38.5463 119.157 38.5463V47.1473C121.587 47.1473 123.558 45.2222 123.558 42.8465C123.558 42.6798 123.546 42.5158 123.527 42.3538V39.7485L124.906 38.5625L131.56 46.6035C131.977 47.1264 132.522 47.3921 133.181 47.3921C133.683 47.3921 134.157 47.2202 134.597 46.8759C135.126 46.4456 135.393 45.904 135.393 45.2653C135.393 44.7461 135.227 44.3028 134.898 43.9481Z" fill="#5BC7D0"/>
<path d="M116.311 25.1453C115.889 24.7338 115.362 24.5249 114.745 24.5249C113.328 24.5249 111.952 24.7927 110.655 25.3199C109.863 25.6427 109.123 26.0516 108.441 26.5407C108.419 25.9656 108.218 25.486 107.84 25.1162C107.437 24.7229 106.909 24.5234 106.27 24.5234C105.63 24.5234 105.103 24.7229 104.7 25.1162C104.297 25.5094 104.094 26.025 104.094 26.65V35.9968C104.097 35.9968 104.1 35.9963 104.103 35.9963V38.5465C104.1 38.5465 104.097 38.546 104.094 38.546V47.1473C106.525 47.1473 108.495 45.2218 108.495 42.8467C108.495 42.7993 108.489 42.7534 108.488 42.7065H108.506V34.9667C108.506 34.1234 108.668 33.3171 108.988 32.5707C109.306 31.8264 109.756 31.1737 110.324 30.6321C110.895 30.0872 111.568 29.6446 112.324 29.3164C113.07 28.9924 113.885 28.8278 114.745 28.8278C115.363 28.8278 115.89 28.6189 116.311 28.207C116.733 27.795 116.947 27.2798 116.947 26.6767C116.947 26.074 116.733 25.5589 116.311 25.1453Z" fill="#5BC7D0"/>
<path d="M172.429 25.1453C172.007 24.7338 171.48 24.5249 170.862 24.5249C169.446 24.5249 168.069 24.7922 166.773 25.3197C165.984 25.6411 165.247 26.0479 164.568 26.5344C164.544 25.962 164.344 25.4844 163.967 25.1156C163.564 24.7228 163.036 24.5234 162.397 24.5234C161.757 24.5234 161.23 24.7228 160.827 25.1156C160.424 25.5089 160.221 26.025 160.221 26.6495V42.706H160.243V47.1469C162.674 47.1469 164.644 45.2218 164.644 42.8467C164.644 42.7149 164.636 42.5856 164.624 42.457V34.9665C164.624 34.1228 164.786 33.3165 165.106 32.5707C165.424 31.8258 165.874 31.1737 166.441 30.632C167.013 30.0867 167.686 29.6439 168.441 29.3163C169.188 28.9918 170.002 28.8278 170.862 28.8278C171.481 28.8278 172.008 28.6189 172.429 28.2069C172.85 27.7948 173.064 27.2798 173.064 26.676C173.064 26.0735 172.85 25.5584 172.429 25.1453Z" fill="#3AC6F4"/>
<path d="M93.9685 41.6396C93.1482 42.2387 92.1825 42.6464 91.1746 42.7714C88.7699 43.07 86.4025 41.7089 85.2077 39.6504C84.5036 38.4374 84.1874 37.0154 84.2327 35.6139C84.2837 34.0414 84.7957 32.471 85.7692 31.236C87.7485 28.7256 91.0174 28.3369 93.7404 29.8547C95.6957 30.9444 96.7697 33.6852 96.7957 35.8425C96.8224 38.076 95.7722 40.3223 93.9685 41.6396ZM100.241 31.5188C98.562 27.4837 94.5483 24.3285 90.0584 24.5816C84.8041 24.8779 80.4945 29.4083 79.9121 34.5466C79.1841 40.9766 84.3254 47.1185 90.8928 47.0815C91.2522 47.0795 91.6116 47.0586 91.9689 47.0195C92.8804 46.9206 93.7925 46.6925 94.6128 46.2752C95.4072 45.8716 95.9978 45.2367 96.6936 44.7013C96.6936 44.7013 96.7249 44.7038 96.7686 44.7257L96.6936 44.8569V45.0018C96.6936 45.606 96.9073 46.1211 97.3285 46.532C97.7494 46.944 98.2771 47.1529 98.8958 47.1529C99.5136 47.1529 100.041 46.944 100.462 46.532C100.778 46.2232 100.978 45.856 101.057 45.4367C101.071 45.4367 101.083 45.4362 101.098 45.4357V35.8389C101.098 34.3377 100.809 32.884 100.241 31.5188Z" fill="#67C7C2"/>
<path d="M149.895 41.6396C149.075 42.2387 148.109 42.6464 147.101 42.7714C144.697 43.07 142.329 41.7089 141.134 39.6504C140.43 38.4374 140.114 37.0154 140.159 35.6139C140.21 34.0414 140.722 32.471 141.696 31.236C143.675 28.7256 146.944 28.3369 149.667 29.8547C151.622 30.9444 152.696 33.6852 152.722 35.8425C152.749 38.076 151.699 40.3223 149.895 41.6396ZM156.167 31.5188C154.489 27.4837 150.475 24.3285 145.985 24.5816C140.731 24.8779 136.421 29.4083 135.839 34.5466C135.111 40.9766 140.252 47.1185 146.819 47.0815C147.179 47.0795 147.538 47.0586 147.896 47.0195C148.807 46.9206 149.719 46.6925 150.54 46.2752C151.334 45.8716 151.924 45.2367 152.62 44.7013C152.62 44.7013 152.652 44.7038 152.695 44.7257L152.62 44.8569V45.0018C152.62 45.606 152.834 46.1211 153.255 46.532C153.676 46.944 154.204 47.1529 154.822 47.1529C155.44 47.1529 155.967 46.944 156.389 46.532C156.705 46.2232 156.904 45.856 156.984 45.4367C156.998 45.4367 157.01 45.4362 157.024 45.4357V35.8389C157.024 34.3377 156.736 32.884 156.167 31.5188Z" fill="#49C6E5"/>
<path d="M12.4527 33.3622C10.8281 33.8992 8.70517 34.9388 6.57432 36.9514C4.41585 38.989 3.05641 39.4865 2.41213 41.3344C2.11887 42.1751 2.05699 45.831 2.05899 46.7607L2.00586 58.3405C2.00486 57.9097 2.38664 57.221 2.53614 56.8279C2.72628 56.3284 2.92941 55.8356 3.14555 55.3512C3.55807 54.4283 4.01959 53.5355 4.53099 52.685C5.49828 51.077 6.64357 49.6281 7.92801 48.3744C9.04843 47.2806 10.2687 46.3362 11.5454 45.5211C12.2011 45.1024 12.8715 44.7173 13.5523 44.3606C13.8997 44.1788 14.2502 44.0043 14.6023 43.8361C14.8856 43.7012 15.3987 43.6617 15.5862 43.3345C15.5887 43.3293 15.5914 43.3242 15.595 43.3184C15.8081 42.9105 15.6685 42.2766 15.6476 41.8225C15.6211 41.2147 15.594 40.6068 15.5669 39.9984C15.5216 38.9853 15.4711 37.7369 15.4055 36.9811C15.3106 35.8951 15.0658 32.7855 14.4069 32.7355C14.3793 32.7335 14.3512 32.7324 14.3226 32.7324C13.7273 32.7319 12.9929 33.1836 12.4527 33.3622Z" fill="url(#paint0_linear_593_134)"/>
<path d="M15.6509 43.3748L15.6477 43.2227C15.6504 43.3414 11.8887 45.2212 11.4834 45.4931C10.087 46.4295 8.76255 47.5213 7.55412 48.7765C5.0795 51.3475 3.18155 54.557 2.00537 58.2041C2.00537 58.2041 2.00749 58.9838 2.00749 58.9844C2.02412 64.9138 8.04002 60.8615 9.79897 59.1265C14.0898 54.8929 16.129 50.6177 15.6509 43.5393C15.6472 43.4842 15.6524 43.4299 15.6509 43.3748Z" fill="#71C7B1"/>
<path d="M30.9075 11.804C34.3004 12.9759 36.451 16.0719 36.2588 19.5086C36.0307 23.5858 32.4315 26.712 27.8871 26.7808C25.9307 26.8115 23.9551 26.8022 22.045 26.7933C19.8872 26.7839 17.6553 26.7745 15.4454 26.8193C11.8415 26.8912 8.57368 28.2699 6.24495 30.7007C5.13652 31.8575 4.06872 32.9571 3.49632 34.4463L2.96143 35.6401L18.8621 35.8067L19.5971 35.7807C20.893 35.7322 22.2306 35.7312 23.527 35.7296C25.8953 35.727 28.3443 35.7238 30.7611 35.4394C39.0933 34.4571 46.1963 27.5818 45.4478 19.1637L45.4331 18.547C42.3002 13.8494 36.5577 11.9119 31.2382 10.6279L30.9075 11.804Z" fill="url(#paint1_linear_593_134)"/>
<path d="M14.4095 2.4943C13.0366 2.5943 11.7407 2.86982 10.5574 3.31196C7.1822 4.57502 4.46644 7.00176 3.01687 10.8077L2.44597 12.9942C2.26209 13.4766 2.71062 13.9598 3.19239 13.7984L5.2331 13.116C9.84319 11.5733 14.3013 11.4072 18.4227 11.4515C19.6316 11.4645 20.8682 11.4431 21.9589 11.4238C24.1261 11.3853 26.3674 11.3457 28.4993 11.5447C29.1727 11.6077 29.8357 11.7503 30.4691 11.9697L30.5395 11.9895C35.6027 13.2114 41.165 15.0411 44.0339 19.3434L45.4907 21.5279L45.4422 18.8862C45.2876 10.3488 38.4106 3.13958 29.7874 2.47392C27.3935 2.28904 24.9273 2.19629 22.4048 2.19629C19.7932 2.19629 17.1222 2.29579 14.4095 2.4943Z" fill="url(#paint2_linear_593_134)"/>
<path d="M3.01768 35.4781C2.16289 37.8984 1.93013 40.5574 2.02601 43.3493L2.08013 60.4412C2.08013 60.4412 5.10214 47.9808 6.8506 44.1008C8.80694 39.759 10.155 37.374 14.5271 36.5396C16.9609 36.0755 27.0933 35.6521 29.5939 35.5557C29.5939 35.5557 21.0247 31.9378 14.5765 31.0403C13.503 30.8908 12.528 30.8242 11.6409 30.8242C4.23222 30.8247 3.01768 35.4781 3.01768 35.4781Z" fill="url(#paint3_linear_593_134)"/>
<path d="M8.93839 5.79245C4.59857 6.68362 3.06313 10.8078 3.06313 10.8078C2.21509 13.213 1.61768 15.8663 1.84069 18.6269C1.65155 22.3843 1.71356 31.2364 2.46097 35.3719C4.24593 14.2308 9.20552 10.3739 21.5202 11.4338C24.8151 11.373 28.2439 11.4453 29.6106 11.7204C29.6106 11.7204 20.7514 8.5467 14.6094 6.3706C14.0042 6.15597 13.4286 5.99396 12.8792 5.87583C12.1504 5.6857 11.4088 5.5752 10.6686 5.5752C10.0884 5.5752 9.50967 5.64295 8.93839 5.79245Z" fill="url(#paint4_linear_593_134)"/>
<path d="M8.85819 12.7888L2.96104 22.5006L2.49951 37.2878C3.2928 28.1463 4.38297 13.8831 14.9871 11.4736C12.337 11.4736 8.85819 12.7888 8.85819 12.7888Z" fill="url(#paint5_linear_593_134)"/>
</g>
<defs>
<linearGradient id="paint0_linear_593_134" x1="11.8202" y1="54.4999" x2="4.72193" y2="36.362" gradientUnits="userSpaceOnUse">
<stop stop-color="#48BFA9"/>
<stop offset="1" stop-color="#3E5C79"/>
</linearGradient>
<linearGradient id="paint1_linear_593_134" x1="2.96118" y1="23.2173" x2="45.5021" y2="23.2173" gradientUnits="userSpaceOnUse">
<stop stop-color="#48BFA9"/>
<stop offset="1" stop-color="#486B8C"/>
</linearGradient>
<linearGradient id="paint2_linear_593_134" x1="2.40397" y1="11.8624" x2="45.4911" y2="11.8624" gradientUnits="userSpaceOnUse">
<stop stop-color="#71C7B1"/>
<stop offset="1" stop-color="#3AC6F4"/>
</linearGradient>
<linearGradient id="paint3_linear_593_134" x1="9.21046" y1="62.3217" x2="17.3358" y2="31.5138" gradientUnits="userSpaceOnUse">
<stop stop-color="#3AC6F4"/>
<stop offset="1" stop-color="#71C7B1"/>
</linearGradient>
<linearGradient id="paint4_linear_593_134" x1="9.44591" y1="37.2141" x2="17.4004" y2="7.05414" gradientUnits="userSpaceOnUse">
<stop stop-color="#3AC6F4"/>
<stop offset="1" stop-color="#71C7B1"/>
</linearGradient>
<linearGradient id="paint5_linear_593_134" x1="3.54668" y1="37.5633" x2="10.7243" y2="10.349" gradientUnits="userSpaceOnUse">
<stop stop-color="#3AC6F4"/>
<stop offset="1" stop-color="#71C7B1"/>
</linearGradient>
<clipPath id="clip0_593_134">
<rect width="171.383" height="59.8778" fill="white" transform="translate(1.73584 2.2168)"/>
</clipPath>
</defs>
</svg>
